<svg width="216" height="60" viewBox="0 0 216 60" fill="none" xmlns="http://www.w3.org/2000/svg">
<g clip-path="url(#clip0_1621_137)">
<mask id="mask0_1621_137" style="mask-type:luminance" maskUnits="userSpaceOnUse" x="72" y="6" width="35" height="30">
<path d="M106.089 6.39258H100.848V26.552L85.9255 8.76866L85.6331 8.39574L85.384 8.10805L85.2649 7.94822L84.6802 7.21302L84.4311 7.01058L83.9763 6.39258H78.7352V35.0548H83.9763V14.4479V14.5331L85.0592 15.9183H85.1458L85.8497 16.7707L86.0121 16.9838L93.5922 26.2217L100.74 34.9269H106.089V6.39258ZM77.8039 6.39258H72.5195V35.0548H77.7606L77.8039 6.39258Z" fill="white"/>
</mask>
<g mask="url(#mask0_1621_137)">
<path d="M106.077 6.43555H72.5625V35.0551H106.077V6.43555Z" fill="url(#paint0_linear_1621_137)"/>
</g>
<path d="M74.1238 53.0625L73.9609 53.1052V53.0625H74.1238Z" fill="#DF4613"/>
<mask id="mask1_1621_137" style="mask-type:luminance" maskUnits="userSpaceOnUse" x="106" y="5" width="110" height="32">
<path d="M196.856 24.6345L200.851 16.9841L204.836 24.6345H196.856ZM193.553 6.393H165.961V11.1345H177.137V35.0551H182.378V11.1771H193.553V6.393ZM165.214 6.393H139.788V35.0551H165.214V30.3136H145.073V23.196H161.316V18.4545H145.073V11.1771H165.214V6.393ZM133.67 6.393L122.95 25.359L118.954 18.2947L118.662 17.8046L117.297 15.3433L116.918 14.6933L116.712 14.2884L115.835 12.8926V12.818L114.752 10.8575L113.215 8.10847L112.229 6.393H106.988V35.0551H112.229V16.1637L115.478 22.2158L117.178 25.4123L117.763 26.4778L118.846 28.5236L121.25 33.0307L121.336 33.1905L122.917 36.0993L123.08 35.8543L123.166 35.7264L123.415 35.2789L123.535 35.0338L123.708 34.7035L123.87 34.4265L124.076 34.0536L124.206 33.8085L124.78 32.743L124.91 32.4553L125.408 31.5603L125.527 31.3578L125.744 30.9423L126.902 28.8113L126.989 28.6514L127.238 28.2359L127.4 27.9162L127.53 27.7031L133.724 16.1744V35.0551H138.955V6.393H133.67ZM215.459 34.0962L215.037 33.2757L214.875 32.9881L212.709 28.8645L211.626 26.7335L200.797 5.9668L199.433 8.64122L194.452 18.2308L193.282 20.4364L191.831 23.1747L188.713 29.1842L188.593 29.4293L188.507 29.5571L188.301 29.962L188.095 30.3776L187.597 31.3578L187.348 31.8053L186.926 32.6258V32.7004L186.309 33.8937L185.81 34.874L185.724 35.0338H191.376L192.124 33.6061L192.286 33.3184L194.203 29.7169L194.289 29.5145L194.365 29.3547H207.36L210.359 35.0338H216.001L215.459 34.0962Z" fill="white"/>
</mask>
<g mask="url(#mask1_1621_137)">
<path d="M215.968 5.94531H106.988V36.0779H215.968V5.94531Z" fill="url(#paint1_linear_1621_137)"/>
</g>
<mask id="mask2_1621_137" style="mask-type:luminance" maskUnits="userSpaceOnUse" x="34" y="0" width="30" height="30">
<path d="M34.6211 0L38.2271 3.65469C39.7106 5.16771 41.3782 6.85121 43.2733 8.76912L50.8534 16.4727L63.6204 29.3441H46.8684L41.7139 17.0481C40.4903 14.1073 39.4182 11.5288 38.4653 9.28057L36.2454 3.95303C35.704 2.48263 35.1301 1.18271 34.6211 0Z" fill="white"/>
</mask>
<g mask="url(#mask2_1621_137)">
<path d="M63.6212 0H34.6328V29.3441H63.6212V0Z" fill="url(#paint2_linear_1621_137)"/>
</g>
<mask id="mask3_1621_137" style="mask-type:luminance" maskUnits="userSpaceOnUse" x="34" y="29" width="30" height="30">
<path d="M34.6211 58.6878L38.2271 55.0332C39.7106 53.5201 41.3782 51.8365 43.2733 49.9186L50.8534 42.2045L63.6204 29.3438H46.8684L41.7139 41.6717C40.4903 44.6125 39.4182 47.1909 38.4653 49.4392L36.2454 54.7667C35.6499 56.1838 35.1626 57.4837 34.6211 58.6664" fill="white"/>
</mask>
<g mask="url(#mask3_1621_137)">
<path d="M63.3945 29H34.3945V59H63.3945V29Z" fill="url(#paint3_linear_1621_137)"/>
</g>
<mask id="mask4_1621_137" style="mask-type:luminance" maskUnits="userSpaceOnUse" x="0" y="0" width="29" height="30">
<path d="M28.956 0.373047L25.3608 4.02773L20.3038 9.14217L12.7237 16.8457C9.25854 20.3619 5.14363 24.5707 0 29.7171H16.7303L21.874 17.3891L25.1226 9.61099L27.3425 4.28345C27.9272 2.85567 28.4253 1.55576 28.956 0.383702" fill="white"/>
</mask>
<g mask="url(#mask4_1621_137)">
<path d="M28.9572 0.373047H-0.03125V29.7171H28.9572V0.373047Z" fill="url(#paint4_linear_1621_137)"/>
</g>
<mask id="mask5_1621_137" style="mask-type:luminance" maskUnits="userSpaceOnUse" x="0" y="29" width="29" height="31">
<path d="M28.956 59.0494L25.3608 55.4054L20.3038 50.2909L12.7237 42.5873C9.25854 39.0711 5.14363 34.8624 0 29.7266H16.7303L21.874 42.0546C23.1084 44.9954 24.1805 47.5632 25.1226 49.8221L27.3425 55.1496C27.9272 56.5774 28.4253 57.8773 28.956 59.0494Z" fill="white"/>
</mask>
<g mask="url(#mask5_1621_137)">
<path d="M28.9572 29.7168H-0.03125V59.0609H28.9572V29.7168Z" fill="url(#paint5_linear_1621_137)"/>
</g>
<path d="M212.958 46.2425H215.968V45.6458H213.629V43.909H215.621V43.3336H213.629V41.7993H215.914V41.2026H212.958V46.2425ZM207.771 45.6458V41.7993H208.42C208.961 41.7608 209.5 41.8833 209.969 42.1509C210.23 42.3307 210.444 42.5698 210.591 42.8481C210.738 43.1263 210.815 43.4354 210.815 43.7492C210.815 44.063 210.738 44.3721 210.591 44.6503C210.444 44.9286 210.23 45.1677 209.969 45.3475C209.507 45.6017 208.981 45.72 208.453 45.6884L207.771 45.6458ZM207.099 46.2425H208.334C209.071 46.2919 209.806 46.1131 210.434 45.731C210.763 45.4992 211.027 45.191 211.205 44.8341C211.382 44.4771 211.467 44.0824 211.452 43.6853C211.465 43.2711 211.367 42.8609 211.167 42.4961C210.968 42.1313 210.674 41.8248 210.315 41.6075C209.763 41.3087 209.137 41.1649 208.507 41.192H207.099V46.2425ZM202.876 43.2378C203.049 42.8009 203.223 42.3747 203.374 41.9698C203.526 42.3747 203.699 42.8116 203.861 43.2164L204.273 44.282H202.465L202.876 43.2378ZM200.959 46.2425H201.652L202.226 44.836H204.533L205.107 46.2425H205.821L203.71 41.2026H203.071L200.959 46.2425ZM196.487 45.6458V41.7993H197.148C197.685 41.7603 198.221 41.8829 198.685 42.1509C198.949 42.3291 199.164 42.5677 199.313 42.8462C199.462 43.1246 199.54 43.4346 199.54 43.7492C199.54 44.0638 199.462 44.3738 199.313 44.6522C199.164 44.9307 198.949 45.1693 198.685 45.3475C198.22 45.6031 197.69 45.7215 197.159 45.6884L196.487 45.6458ZM195.816 46.2425H197.05C197.791 46.2934 198.53 46.1146 199.162 45.731C199.487 45.4989 199.75 45.1922 199.927 44.8375C200.104 44.4829 200.191 44.091 200.18 43.6959C200.19 43.2809 200.09 42.8705 199.889 42.5058C199.687 42.1411 199.392 41.835 199.032 41.6182C198.48 41.3167 197.854 41.1728 197.223 41.2026H195.816V46.2425ZM193.336 46.2425H194.007V41.2026H193.336V46.2425ZM188.81 46.2425H191.896V45.6458H189.47V41.2026H188.799L188.81 46.2425ZM184.586 43.2378C184.77 42.8009 184.933 42.3747 185.095 41.9698C185.247 42.3747 185.42 42.8116 185.583 43.2164L186.005 44.282H184.164L184.586 43.2378ZM182.681 46.2425H183.363L183.937 44.836H186.222L186.795 46.2425H187.521L185.355 41.2026H184.716L182.681 46.2425ZM177.775 45.5286C177.97 45.7912 178.229 46.0012 178.528 46.1391C178.827 46.2769 179.156 46.3381 179.486 46.3171C179.819 46.3398 180.152 46.2795 180.455 46.1416C180.758 46.0038 181.021 45.7929 181.219 45.5286C181.506 44.9959 181.626 44.3917 181.565 43.7918V41.2026H180.915V43.8238C180.953 44.2591 180.887 44.6972 180.721 45.1024C180.599 45.3047 180.422 45.4686 180.209 45.5743C179.995 45.6801 179.756 45.7234 179.519 45.6991C179.28 45.7229 179.039 45.6795 178.824 45.5738C178.609 45.4682 178.43 45.3047 178.306 45.1024C178.131 44.6919 178.061 44.2458 178.1 43.8025V41.2026H177.429V43.8664C177.378 44.4418 177.498 45.0194 177.775 45.5286ZM171.44 43.6853C171.457 43.3142 171.585 42.9563 171.806 42.6558C172.028 42.3553 172.335 42.1255 172.688 41.995C173.042 41.8644 173.426 41.8388 173.794 41.9213C174.162 42.0038 174.497 42.1909 174.758 42.4592C175.019 42.7275 175.195 43.0653 175.262 43.4307C175.33 43.7961 175.287 44.173 175.139 44.5146C174.991 44.8563 174.744 45.1476 174.429 45.3524C174.114 45.5573 173.745 45.6667 173.368 45.6671C173.108 45.6659 172.85 45.6131 172.611 45.512C172.373 45.4109 172.157 45.2635 171.977 45.0786C171.797 44.8936 171.657 44.675 171.565 44.4356C171.472 44.1962 171.43 43.941 171.44 43.6853ZM170.769 43.6853C170.76 44.0218 170.82 44.3567 170.944 44.6704C171.068 44.9841 171.255 45.2703 171.493 45.5123C171.731 45.7543 172.015 45.9473 172.33 46.08C172.644 46.2126 172.982 46.2824 173.325 46.2851C173.87 46.7321 174.484 47.0917 175.144 47.3506L175.804 46.967C175.227 46.7663 174.677 46.4942 174.169 46.1572C174.635 46.0171 175.053 45.7523 175.375 45.3924C175.697 45.0325 175.911 44.5916 175.994 44.1189C176.076 43.6461 176.024 43.1602 175.842 42.7152C175.66 42.2702 175.356 41.8836 174.964 41.5986C174.572 41.3136 174.107 41.1413 173.621 41.101C173.136 41.0607 172.648 41.154 172.213 41.3703C171.778 41.5867 171.413 41.9177 171.158 42.3265C170.903 42.7352 170.768 43.2056 170.769 43.6853ZM159.605 45.6138V41.7993H160.233C160.769 41.7616 161.305 41.8842 161.77 42.1509C162.036 42.3275 162.254 42.5656 162.404 42.8443C162.555 43.1229 162.633 43.4336 162.633 43.7492C162.633 44.0647 162.555 44.3755 162.404 44.6541C162.254 44.9328 162.036 45.1709 161.77 45.3475C161.309 45.6028 160.782 45.7212 160.254 45.6884L159.605 45.6138ZM158.933 46.2105H160.168C160.908 46.26 161.646 46.0813 162.279 45.6991C162.604 45.4669 162.867 45.1602 163.044 44.8056C163.222 44.4509 163.309 44.0591 163.297 43.664C163.308 43.249 163.208 42.8385 163.006 42.4738C162.805 42.1091 162.509 41.803 162.149 41.5862C161.597 41.2874 160.971 41.1436 160.341 41.1707H158.933V46.2105ZM152.663 46.2105H155.685V45.6138H153.335V43.909H155.338V43.3336H153.335V41.7993H155.62V41.2026H152.653L152.663 46.2105ZM148.895 46.2105H149.566V41.7993H151.288V41.2026H147.238V41.7993H148.949L148.895 46.2105ZM142.138 46.2105V43.6853C142.138 43.1951 142.138 42.6943 142.138 42.2575L143.026 43.4295L145.192 46.2318H145.83V41.2026H145.17V43.7385C145.17 44.218 145.17 44.7295 145.17 45.1663C144.888 44.7721 144.585 44.3672 144.293 43.9943L142.127 41.192H141.488V46.2425L142.138 46.2105ZM136.929 46.2105H139.95V45.6138H137.601V43.909H139.658V43.3336H137.601V41.7993H139.885V41.2026H136.929V46.2105ZM130.789 43.7066C130.782 44.05 130.846 44.3912 130.977 44.7096C131.108 45.0279 131.303 45.3165 131.552 45.5579C131.8 45.7993 132.096 45.9882 132.421 46.1133C132.746 46.2383 133.094 46.2968 133.442 46.2851C134.068 46.3004 134.685 46.1376 135.218 45.8163V43.6853H133.399V44.2606H134.547V45.4434C134.21 45.6042 133.839 45.6845 133.464 45.6778C132.927 45.6778 132.412 45.4678 132.032 45.0942C131.652 44.7205 131.439 44.2137 131.439 43.6853C131.439 43.1568 131.652 42.65 132.032 42.2764C132.412 41.9027 132.927 41.6928 133.464 41.6928C134.046 41.6915 134.609 41.8914 135.056 42.2575V41.5543C134.581 41.2766 134.038 41.1329 133.486 41.1387C133.133 41.1256 132.781 41.1835 132.451 41.3088C132.121 41.4342 131.821 41.6243 131.569 41.8676C131.317 42.111 131.117 42.4024 130.983 42.7241C130.849 43.0457 130.783 43.3909 130.789 43.7385V43.7066ZM128.624 46.2105H129.295V41.2026H128.624V46.2105ZM124.097 46.2105H127.183V45.6138H124.769V41.2026H124.097V46.2105ZM119.538 46.2105H122.56V45.6138H120.166V43.909H122.17V43.3336H120.166V41.7993H122.451V41.2026H119.495L119.538 46.2105ZM115.781 46.2105H116.452V41.7993H118.163V41.2026H114.059V41.7993H115.781V46.2105ZM109.024 46.2105V43.6853C109.024 43.1951 109.024 42.6943 109.024 42.2575C109.305 42.6517 109.608 43.046 109.901 43.4295L112.067 46.2318H112.705V41.2026H112.056V43.7385C112.056 44.218 112.056 44.7295 112.056 45.1663C111.763 44.7721 111.471 44.3672 111.168 43.9943L109.002 41.192H108.374V46.2425L109.024 46.2105ZM105.894 46.2105H106.566V41.2026H105.894V46.2105ZM98.0975 43.6853C98.1145 43.3142 98.2418 42.9563 98.4636 42.6558C98.6855 42.3553 98.9921 42.1255 99.3455 41.995C99.6988 41.8644 100.083 41.8388 100.451 41.9213C100.819 42.0038 101.155 42.1909 101.416 42.4592C101.677 42.7275 101.852 43.0653 101.919 43.4307C101.987 43.7961 101.944 44.173 101.796 44.5146C101.648 44.8563 101.401 45.1476 101.086 45.3524C100.772 45.5573 100.402 45.6667 100.025 45.6671C99.7649 45.6659 99.5077 45.6131 99.2687 45.512C99.0297 45.4109 98.8138 45.2635 98.634 45.0786C98.4541 44.8936 98.3139 44.675 98.2218 44.4356C98.1296 44.1962 98.0874 43.941 98.0975 43.6853ZM97.4261 43.6853C97.4326 44.1896 97.5904 44.6809 97.8798 45.0972C98.1693 45.5135 98.5774 45.8363 99.0528 46.0249C99.5282 46.2136 100.05 46.2597 100.552 46.1574C101.054 46.0552 101.514 45.8091 101.874 45.4503C102.234 45.0914 102.478 44.6357 102.576 44.1405C102.674 43.6454 102.62 43.1329 102.423 42.6675C102.225 42.202 101.892 41.8045 101.465 41.5249C101.039 41.2453 100.538 41.0961 100.025 41.0961C99.6798 41.0917 99.3371 41.1559 99.0176 41.2848C98.6982 41.4138 98.4084 41.6049 98.1658 41.8466C97.9231 42.0884 97.7325 42.3758 97.6055 42.6917C97.4784 43.0077 97.4174 43.3456 97.4261 43.6853ZM94.1775 40.3822C94.3519 40.4842 94.5489 40.5427 94.7515 40.5527C94.8658 40.551 94.9781 40.5232 95.0796 40.4714C95.1811 40.4196 95.269 40.3453 95.3362 40.2543V39.7109C95.2729 39.8034 95.1896 39.881 95.0922 39.9381C94.9949 39.9952 94.8859 40.0304 94.7731 40.0412C94.603 40.029 94.439 39.9739 94.2967 39.8814C94.1191 39.7884 93.9234 39.7339 93.7227 39.7216C93.6074 39.7177 93.493 39.7431 93.3906 39.7953C93.2882 39.8476 93.2012 39.9249 93.138 40.0199V40.5633C93.2024 40.4695 93.2875 40.3911 93.3868 40.334C93.4861 40.2768 93.5972 40.2423 93.7119 40.233C93.8767 40.2471 94.0359 40.2981 94.1775 40.3822ZM93.7119 43.2378C93.8852 42.8009 94.0584 42.3747 94.21 41.9698L94.6973 43.2164L95.1196 44.282H93.2788L93.7119 43.2378ZM91.7627 46.2425H92.4449L93.0297 44.836H95.3254L95.8993 46.2425H96.6248L94.4591 41.2026H93.8094L91.7627 46.2425ZM89.1855 46.2425H89.8461V41.7993H91.557V41.2026H87.4637V41.7993H89.1855V46.2425ZM83.1431 45.9335C83.6123 46.1827 84.1367 46.3144 84.6699 46.3171C85.6878 46.3171 86.3809 45.7737 86.3809 44.8573C86.3809 43.941 85.6445 43.6 84.8973 43.3976C84.1502 43.1951 83.6845 43.1205 83.6845 42.4919C83.6845 41.8633 84.0852 41.7354 84.6591 41.7354C85.1883 41.7433 85.7038 41.9025 86.1426 42.1936V41.5543C85.6942 41.3034 85.1858 41.1746 84.6699 41.1813C83.6737 41.1813 83.024 41.6928 83.024 42.5878C83.024 43.4828 83.717 43.7918 84.4425 43.9943C85.1681 44.1967 85.7095 44.2926 85.7095 44.9426C85.7095 45.5925 85.2763 45.763 84.6266 45.763C84.0775 45.7543 83.5444 45.5794 83.0998 45.2622L83.1431 45.9335ZM78.7033 46.2425H81.7245V45.6458H79.3747V43.909H81.378V43.3336H79.3747V41.7993H81.6596V41.2026H78.7033V46.2425ZM165.495 43.2378C165.669 42.8009 165.842 42.3747 165.994 41.9698C166.145 42.3747 166.318 42.8116 166.481 43.2164L166.892 44.282H165.062L165.495 43.2378ZM163.579 46.2425H164.261L164.846 44.836H167.152L167.726 46.2425H168.441L166.275 41.2026H165.647L163.579 46.2425ZM72.5201 43.7385C72.5126 44.0819 72.5763 44.4232 72.7073 44.7415C72.8384 45.0598 73.0341 45.3485 73.2824 45.5899C73.5308 45.8312 73.8265 46.0202 74.1516 46.1452C74.4767 46.2703 74.8243 46.3287 75.1732 46.3171C75.8166 46.3311 76.4498 46.1568 76.9924 45.8163V43.6853H75.1732V44.2606H76.321V45.4434C75.9838 45.6042 75.6128 45.6845 75.2381 45.6778C74.7011 45.6778 74.186 45.4678 73.8063 45.0942C73.4265 44.7205 73.2132 44.2137 73.2132 43.6853C73.2132 43.1568 73.4265 42.65 73.8063 42.2764C74.186 41.9027 74.7011 41.6928 75.2381 41.6928C75.8326 41.6984 76.4052 41.9139 76.8516 42.3001V41.5543C76.3769 41.2766 75.8337 41.1329 75.2815 41.1387C74.9231 41.1166 74.5639 41.1677 74.2266 41.289C73.8894 41.4103 73.5813 41.599 73.3218 41.8433C73.0624 42.0875 72.8572 42.3821 72.7192 42.7083C72.5812 43.0345 72.5134 43.3853 72.5201 43.7385Z" fill="#505050"/>
</g>
<defs>
<linearGradient id="paint0_linear_1621_137" x1="89.2928" y1="35.087" x2="89.3138" y2="22.9403" gradientUnits="userSpaceOnUse">
<stop stop-color="#196448"/>
<stop offset="0.04" stop-color="#1C684A"/>
<stop offset="0.45" stop-color="#378C61"/>
<stop offset="0.79" stop-color="#48A36F"/>
<stop offset="1" stop-color="#4EAB74"/>
</linearGradient>
<linearGradient id="paint1_linear_1621_137" x1="161.478" y1="35.9927" x2="161.478" y2="21.1501" gradientUnits="userSpaceOnUse">
<stop stop-color="#D52B16"/>
<stop offset="1" stop-color="#DF4613"/>
</linearGradient>
<linearGradient id="paint2_linear_1621_137" x1="37.2317" y1="13.2762" x2="47.2977" y2="14.4972" gradientUnits="userSpaceOnUse">
<stop stop-color="#D52B16"/>
<stop offset="1" stop-color="#DF4613"/>
</linearGradient>
<linearGradient id="paint3_linear_1621_137" x1="48.8675" y1="29.1089" x2="48.9003" y2="46.6144" gradientUnits="userSpaceOnUse">
<stop stop-color="#D52B16"/>
<stop offset="1" stop-color="#DF4613"/>
</linearGradient>
<linearGradient id="paint4_linear_1621_137" x1="14.5009" y1="16.8564" x2="14.2178" y2="2.59977" gradientUnits="userSpaceOnUse">
<stop stop-color="#4EAB74"/>
<stop offset="1" stop-color="#196448"/>
</linearGradient>
<linearGradient id="paint5_linear_1621_137" x1="14.4901" y1="29.7275" x2="14.4586" y2="44.4847" gradientUnits="userSpaceOnUse">
<stop stop-color="#196448"/>
<stop offset="0.04" stop-color="#1C684A"/>
<stop offset="0.45" stop-color="#378C61"/>
<stop offset="0.79" stop-color="#48A36F"/>
<stop offset="1" stop-color="#4EAB74"/>
</linearGradient>
<clipPath id="clip0_1621_137">
<rect width="216" height="60" fill="white"/>
</clipPath>
</defs>
</svg>
